<!--?xml version="1.0" encoding="UTF-8" standalone="no"?-->
<!-- Created with Inkscape (http://www.inkscape.org/) -->

<svg xmlns:dc="http://purl.org/dc/elements/1.1/" xmlns:cc="http://creativecommons.org/ns#" xmlns:rdf="http://www.w3.org/1999/02/22-rdf-syntax-ns#" xmlns:svg="http://www.w3.org/2000/svg" xmlns="http://www.w3.org/2000/svg" xmlns:sodipodi="http://sodipodi.sourceforge.net/DTD/sodipodi-0.dtd" xmlns:inkscape="http://www.inkscape.org/namespaces/inkscape" width="100%" height="100%" viewBox="0 0 55.739063 38.276951" version="1.1" id="svg5657" inkscape:version="0.92.1 r15371" sodipodi:docname="logo.svg">
  <defs id="defs5651">
    <clipPath id="clipPath4549" clipPathUnits="userSpaceOnUse">
      <path inkscape:connector-curvature="0" id="path4547" d="M 0,0 H 800 V 600 H 0 Z"></path>
    </clipPath>
  </defs>
  <sodipodi:namedview id="base" pagecolor="#ffffff" bordercolor="#666666" borderopacity="1.0" inkscape:pageopacity="0.0" inkscape:pageshadow="2" inkscape:zoom="0.35" inkscape:cx="-490.38063" inkscape:cy="-230.52273" inkscape:document-units="mm" inkscape:current-layer="layer1" showgrid="false" fit-margin-top="0" fit-margin-left="0" fit-margin-right="0" fit-margin-bottom="0" inkscape:window-width="2560" inkscape:window-height="1377" inkscape:window-x="-8" inkscape:window-y="-8" inkscape:window-maximized="1"></sodipodi:namedview>
  <metadata id="metadata5654">
    <rdf:rdf>
      <cc:work rdf:about="">
        <dc:format>image/svg+xml</dc:format>
        <dc:type rdf:resource="http://purl.org/dc/dcmitype/StillImage"></dc:type>
        <dc:title></dc:title>
      </cc:work>
    </rdf:rdf>
  </metadata>
  <g inkscape:label="Ebene 1" inkscape:groupmode="layer" id="layer1" transform="translate(-70.404279,-49.563909)">
    <g id="g4495" transform="matrix(0.35277777,0,0,-0.35277777,108.15309,52.01744)">
      <path d="M 0,0 V -69.544" style="fill:none;stroke:#006ab3;stroke-width:0.69700003;stroke-linecap:butt;stroke-linejoin:miter;stroke-miterlimit:4;stroke-dasharray:none;stroke-opacity:1" id="path4497" inkscape:connector-curvature="0"></path>
    </g>
    <g id="g4499" transform="matrix(0.35277777,0,0,-0.35277777,108.09752,51.995)">
      <path d="M 0,0 34.983,-60.344" style="fill:none;stroke:#e3005d;stroke-width:0.69700003;stroke-linecap:butt;stroke-linejoin:miter;stroke-miterlimit:4;stroke-dasharray:none;stroke-opacity:1" id="path4501" inkscape:connector-curvature="0"></path>
    </g>
    <g id="g4503" transform="matrix(0.35277777,0,0,-0.35277777,102.40655,55.28494)">
      <path d="M 0,0 34.99,-60.345" style="fill:none;stroke:#771c80;stroke-width:0.69700003;stroke-linecap:butt;stroke-linejoin:miter;stroke-miterlimit:4;stroke-dasharray:none;stroke-opacity:1" id="path4505" inkscape:connector-curvature="0"></path>
    </g>
    <g id="g4507" transform="matrix(0.35277777,0,0,-0.35277777,102.42348,55.26808)">
      <path d="M 0,0 60.346,-34.987" style="fill:none;stroke:#f9b200;stroke-width:0.69700003;stroke-linecap:butt;stroke-linejoin:miter;stroke-miterlimit:4;stroke-dasharray:none;stroke-opacity:1" id="path4509" inkscape:connector-curvature="0"></path>
    </g>
    <g id="g4511" transform="matrix(0.35277777,0,0,-0.35277777,120.44157,55.2866)">
      <path d="M 0,0 -34.99,-60.344" style="fill:none;stroke:#007234;stroke-width:0.69700003;stroke-linecap:butt;stroke-linejoin:miter;stroke-miterlimit:4;stroke-dasharray:none;stroke-opacity:1" id="path4513" inkscape:connector-curvature="0"></path>
    </g>
    <g id="g4515" transform="matrix(0.35277777,0,0,-0.35277777,120.42464,55.2697)">
      <path d="M 0,0 -60.346,-34.988" style="fill:none;stroke:#ffed00;stroke-width:0.69700003;stroke-linecap:butt;stroke-linejoin:miter;stroke-miterlimit:4;stroke-dasharray:none;stroke-opacity:1" id="path4517" inkscape:connector-curvature="0"></path>
    </g>
    <g id="g4519" transform="matrix(0.35277777,0,0,-0.35277777,114.73663,52.01959)">
      <path d="M 0,0 V -69.544" style="fill:none;stroke:#ad1a22;stroke-width:0.69700003;stroke-linecap:butt;stroke-linejoin:miter;stroke-miterlimit:4;stroke-dasharray:none;stroke-opacity:1" id="path4521" inkscape:connector-curvature="0"></path>
    </g>
    <g id="g4523" transform="matrix(0.35277777,0,0,-0.35277777,114.74908,51.99712)">
      <path d="M 0,0 -34.983,-60.345" style="fill:none;stroke:#97bf0d;stroke-width:0.69700003;stroke-linecap:butt;stroke-linejoin:miter;stroke-miterlimit:4;stroke-dasharray:none;stroke-opacity:1" id="path4525" inkscape:connector-curvature="0"></path>
    </g>
    <g id="g4527" transform="matrix(0.35277777,0,0,-0.35277777,99.133479,60.95739)">
      <path d="M 0,0 60.344,-34.991" style="fill:none;stroke:#ec7405;stroke-width:0.69700003;stroke-linecap:butt;stroke-linejoin:miter;stroke-miterlimit:4;stroke-dasharray:none;stroke-opacity:1" id="path4529" inkscape:connector-curvature="0"></path>
    </g>
    <g id="g4531" transform="matrix(0.35277777,0,0,-0.35277777,99.156409,61.03762)">
      <path d="M 0,0 69.531,0.259" style="fill:none;stroke:#8baed7;stroke-width:0.69700003;stroke-linecap:butt;stroke-linejoin:miter;stroke-miterlimit:4;stroke-dasharray:none;stroke-opacity:1" id="path4533" inkscape:connector-curvature="0"></path>
    </g>
    <g id="g4535" transform="matrix(0.35277777,0,0,-0.35277777,123.68744,67.52989)">
      <path d="M 0,0 -69.53,-0.258" style="fill:none;stroke:#e2001a;stroke-width:0.69700003;stroke-linecap:butt;stroke-linejoin:miter;stroke-miterlimit:4;stroke-dasharray:none;stroke-opacity:1" id="path4537" inkscape:connector-curvature="0"></path>
    </g>
    <g id="g4539" transform="matrix(0.35277777,0,0,-0.35277777,102.42105,73.30536)">
      <path d="M 0,0 60.342,35.002" style="fill:none;stroke:#162983;stroke-width:0.69700003;stroke-linecap:butt;stroke-linejoin:miter;stroke-miterlimit:4;stroke-dasharray:none;stroke-opacity:1" id="path4541" inkscape:connector-curvature="0"></path>
    </g>
    <g id="g4543" transform="matrix(0.35277777,0,0,-0.35277777,-143.37905,248.53043)">
      <g id="g4545" clip-path="url(#clipPath4549)">
        <g id="g4551" transform="translate(687.5075,524.637)">
          <path d="M 0,0 C 3.84,0 6.953,3.113 6.953,6.955 6.953,10.795 3.84,13.91 0,13.91 -3.842,13.91 -6.955,10.795 -6.955,6.955 -6.955,3.113 -3.842,0 0,0" style="fill:#8baed7;fill-opacity:1;fill-rule:nonzero;stroke:none" id="path4553" inkscape:connector-curvature="0"></path>
        </g>
        <g id="g4555" transform="translate(687.5075,505.976)">
          <path d="M 0,0 C 3.84,0 6.953,3.112 6.953,6.954 6.953,10.795 3.84,13.91 0,13.91 -3.842,13.91 -6.955,10.795 -6.955,6.954 -6.955,3.112 -3.842,0 0,0" style="fill:#ffed00;fill-opacity:1;fill-rule:nonzero;stroke:none" id="path4557" inkscape:connector-curvature="0"></path>
        </g>
        <g id="g4559" transform="translate(696.8199,489.8579)">
          <path d="m 0,0 c 3.842,0 6.956,3.113 6.956,6.955 0,3.84 -3.114,6.955 -6.956,6.955 -3.839,0 -6.953,-3.115 -6.953,-6.955 C -6.953,3.113 -3.839,0 0,0" style="fill:#97bf0d;fill-opacity:1;fill-rule:nonzero;stroke:none" id="path4561" inkscape:connector-curvature="0"></path>
        </g>
        <g id="g4563" transform="translate(712.9506,480.5469)">
          <path d="m 0,0 c 3.839,0 6.955,3.112 6.955,6.954 0,3.84 -3.116,6.955 -6.955,6.955 -3.84,0 -6.956,-3.115 -6.956,-6.955 C -6.956,3.112 -3.84,0 0,0" style="fill:#006ab3;fill-opacity:1;fill-rule:nonzero;stroke:none" id="path4565" inkscape:connector-curvature="0"></path>
        </g>
        <g id="g4567" transform="translate(731.6023,480.5469)">
          <path d="m 0,0 c 3.84,0 6.956,3.112 6.956,6.954 0,3.84 -3.116,6.955 -6.956,6.955 -3.839,0 -6.955,-3.115 -6.955,-6.955 C -6.955,3.112 -3.839,0 0,0" style="fill:#771c80;fill-opacity:1;fill-rule:nonzero;stroke:none" id="path4569" inkscape:connector-curvature="0"></path>
        </g>
        <g id="g4571" transform="translate(747.7357,490.0738)">
          <path d="M 0,0 C 3.84,0 6.956,3.113 6.956,6.955 6.956,10.795 3.84,13.91 0,13.91 -3.84,13.91 -6.955,10.795 -6.955,6.955 -6.955,3.113 -3.84,0 0,0" style="fill:#ec7405;fill-opacity:1;fill-rule:nonzero;stroke:none" id="path4573" inkscape:connector-curvature="0"></path>
        </g>
        <g id="g4575" transform="translate(757.0346,506.0019)">
          <path d="m 0,0 c 3.839,0 6.955,3.113 6.955,6.955 0,3.84 -3.116,6.954 -6.955,6.954 -3.841,0 -6.954,-3.114 -6.954,-6.954 C -6.954,3.113 -3.841,0 0,0" style="fill:#e2001a;fill-opacity:1;fill-rule:nonzero;stroke:none" id="path4577" inkscape:connector-curvature="0"></path>
        </g>
        <g id="g4579" transform="translate(757.0455,524.637)">
          <path d="M 0,0 C 3.84,0 6.955,3.113 6.955,6.955 6.955,10.795 3.84,13.91 0,13.91 -3.84,13.91 -6.956,10.795 -6.956,6.955 -6.956,3.113 -3.84,0 0,0" style="fill:#162983;fill-opacity:1;fill-rule:nonzero;stroke:none" id="path4581" inkscape:connector-curvature="0"></path>
        </g>
        <g id="g4583" transform="translate(696.8199,540.7756)">
          <path d="m 0,0 c 3.84,0 6.956,3.112 6.956,6.954 0,3.841 -3.116,6.955 -6.956,6.955 -3.839,0 -6.955,-3.114 -6.955,-6.955 C -6.955,3.112 -3.839,0 0,0" style="fill:#f9b200;fill-opacity:1;fill-rule:nonzero;stroke:none" id="path4585" inkscape:connector-curvature="0"></path>
        </g>
        <g id="g4587" transform="translate(747.7357,540.7661)">
          <path d="m 0,0 c 3.84,0 6.956,3.113 6.956,6.955 0,3.839 -3.116,6.954 -6.956,6.954 -3.84,0 -6.955,-3.115 -6.955,-6.954 C -6.955,3.113 -3.84,0 0,0" style="fill:#007234;fill-opacity:1;fill-rule:nonzero;stroke:none" id="path4589" inkscape:connector-curvature="0"></path>
        </g>
        <g id="g4591" transform="translate(731.6023,550.0906)">
          <path d="m 0,0 c 3.84,0 6.956,3.113 6.956,6.954 0,3.84 -3.116,6.955 -6.956,6.955 -3.839,0 -6.955,-3.115 -6.955,-6.955 C -6.955,3.113 -3.839,0 0,0" style="fill:#ad1a22;fill-opacity:1;fill-rule:nonzero;stroke:none" id="path4593" inkscape:connector-curvature="0"></path>
        </g>
        <g id="g4595" transform="translate(712.9506,550.0906)">
          <path d="m 0,0 c 3.839,0 6.955,3.113 6.955,6.954 0,3.84 -3.116,6.955 -6.955,6.955 -3.84,0 -6.956,-3.115 -6.956,-6.955 C -6.956,3.113 -3.84,0 0,0" style="fill:#e3005d;fill-opacity:1;fill-rule:nonzero;stroke:none" id="path4597" inkscape:connector-curvature="0"></path>
        </g>
        <path d="m 688.113,460.587 h 5.199 v 14.485 h -5.199 z m -56.606,14.482 h -5.199 v -14.482 h 5.199 v 7.687 h 8.219 v 4.026 h -8.219 z M 606,476.378 h 7.69 l -2.351,4.17 H 606 Z m 12.328,0 h 4.893 v 4.17 h -4.893 z m -0.447,-15.791 h 5.34 v 14.482 h -4.893 v -6.824 h -0.056 l -3.847,6.824 H 606 v -14.482 h 4.892 v 12.439 h 0.056 z m 13.626,15.794 h 9.506 v 4.167 h -14.705 v -4.17 h 5.199 z m 11.18,-0.003 h 16.95 c -1.595,2.669 -4.486,4.17 -8.367,4.17 h -8.583 z m 18.37,-5.728 c 0,1.662 -0.276,3.139 -0.781,4.419 h -6.241 c 1.191,-0.875 1.819,-2.332 1.819,-4.39 0,-3.999 -1.565,-5.536 -5.507,-5.621 h -2.46 v 10.011 h -5.2 v -14.482 h 8.583 c 6.067,0 9.787,3.521 9.787,10.063 m 2.275,5.728 h 5.197 v 4.17 h -5.197 z m 0,-15.791 h 5.197 v 14.485 h -5.197 z m 15.546,8.357 h -4.976 l 4.92,6.291 h 0.056 z m 4.612,-4.025 h 2.545 v 4.025 h -2.545 v 11.128 h -4.557 l -8.723,-10.708 v -4.445 h 8.529 v -4.332 h 4.751 z m 9.823,15.629 h -5.199 v -4.17 h 5.199 z m 12.5,-19.961 h 4.752 v 9.308 c 0,2.097 -0.392,5.621 -5.227,5.621 -1.733,0 -3.69,-0.924 -4.558,-2.406 h -0.054 v 1.985 h -4.614 v -14.508 h 4.753 v 7.91 c 0,1.594 0.783,3.104 2.571,3.104 2.603,0 2.377,-2.014 2.377,-3.998 z m 16.862,7.631 c 0,-1.818 -0.868,-3.383 -2.882,-3.383 -1.954,0 -2.739,1.706 -2.739,3.41 0,1.789 0.671,3.634 2.768,3.634 2.126,0 2.853,-1.817 2.853,-3.661 m 4.5,-5.871 v 12.748 h -4.556 v -1.818 h -0.057 c -0.838,1.483 -2.153,2.239 -3.886,2.239 -4.109,0 -6.374,-3.244 -6.374,-7.102 0,-4.082 1.984,-7.214 6.374,-7.214 1.537,0 2.992,0.785 3.858,2.125 h 0.055 v -1.369 c 0,-1.789 -0.223,-3.384 -2.487,-3.384 -0.726,0 -1.313,0.084 -1.734,0.308 -0.446,0.224 -0.7,0.615 -0.81,1.259 h -4.752 c 0.559,-3.886 3.744,-4.641 7.129,-4.641 6.793,0 7.24,4.472 7.24,6.849" style="fill:#000000;fill-opacity:1;fill-rule:nonzero;stroke:none" id="path4599" inkscape:connector-curvature="0"></path>
      </g>
    </g>
  </g>
</svg>
